<svg width="42" height="36" viewBox="0 0 42 36" fill="none" xmlns="http://www.w3.org/2000/svg">
<path d="M13.9844 13.1951C13.9844 12.3991 14.2159 11.7064 14.6788 11.1173C15.1583 10.5123 15.8114 10.0506 16.6381 9.73214C17.4648 9.39778 18.4238 9.2306 19.5151 9.2306C20.0938 9.2306 20.6808 9.2704 21.276 9.35001C21.8878 9.42962 22.4251 9.557 22.8881 9.73214V8.944C22.8881 8.0683 22.6153 7.38366 22.0696 6.89008C21.524 6.3965 20.7386 6.14971 19.7135 6.14971C18.986 6.14971 18.2998 6.27709 17.655 6.53184C17.0101 6.77067 16.324 7.11299 15.5965 7.5588L14.6788 5.79147C15.5386 5.2342 16.3984 4.82023 17.2582 4.54956C18.1345 4.27889 19.0521 4.14355 20.0111 4.14355C21.7472 4.14355 23.1113 4.58937 24.1033 5.48099C25.1119 6.3567 25.6162 7.60656 25.6162 9.2306V13.8877C25.6162 14.1903 25.6658 14.4052 25.765 14.5326C25.8808 14.66 26.0709 14.7316 26.3355 14.7475V16.8492C26.0875 16.897 25.8642 16.9288 25.6658 16.9448C25.4674 16.9607 25.3021 16.9686 25.1698 16.9686C24.5911 16.9686 24.1529 16.8333 23.8553 16.5626C23.5577 16.292 23.3841 15.9735 23.3345 15.6073L23.2601 14.8908C22.6979 15.5914 21.9787 16.1327 21.1024 16.5149C20.2261 16.897 19.3415 17.088 18.4486 17.088C17.5888 17.088 16.82 16.9209 16.1421 16.5865C15.4642 16.2362 14.9351 15.7665 14.5548 15.1774C14.1745 14.5883 13.9844 13.9276 13.9844 13.1951ZM22.2432 13.9594C22.4416 13.7524 22.5987 13.5454 22.7145 13.3384C22.8302 13.1315 22.8881 12.9484 22.8881 12.7891V11.3562C22.4251 11.181 21.9374 11.0537 21.4248 10.974C20.9122 10.8785 20.4079 10.8307 19.9119 10.8307C18.9199 10.8307 18.1097 11.0218 17.4814 11.4039C16.8696 11.7861 16.5637 12.3115 16.5637 12.9802C16.5637 13.3464 16.6629 13.6967 16.8613 14.031C17.0763 14.3654 17.3739 14.6361 17.7542 14.8431C18.151 15.05 18.6388 15.1535 19.2175 15.1535C19.8127 15.1535 20.3831 15.0421 20.9288 14.8192C21.4744 14.5963 21.9126 14.3097 22.2432 13.9594Z" fill="#FEFDFC"/>
<path d="M35.5936 17.088C34.5519 17.088 33.6342 16.8492 32.8406 16.3716C32.047 15.8939 31.4187 15.273 30.9557 14.5087V21.9363H28.2275V4.3585H30.6333V6.60349C31.1293 5.85516 31.7741 5.25809 32.5678 4.81227C33.3614 4.36646 34.246 4.14355 35.2215 4.14355C36.1144 4.14355 36.9328 4.3187 37.6769 4.66898C38.4209 5.00334 39.0658 5.47303 39.6114 6.07806C40.157 6.6831 40.5786 7.3757 40.8763 8.15587C41.1904 8.92012 41.3475 9.73214 41.3475 10.5919C41.3475 11.7861 41.0995 12.8767 40.6034 13.8639C40.1239 14.851 39.446 15.6392 38.5697 16.2283C37.7099 16.8015 36.7179 17.088 35.5936 17.088ZM34.7007 14.8431C35.2794 14.8431 35.8002 14.7236 36.2632 14.4848C36.7427 14.246 37.1478 13.9276 37.4785 13.5295C37.8257 13.1315 38.0902 12.6777 38.2721 12.1682C38.454 11.6587 38.5449 11.1333 38.5449 10.5919C38.5449 10.0187 38.4457 9.47739 38.2473 8.96788C38.0489 8.45838 37.7595 8.01257 37.3793 7.63045C37.0155 7.24832 36.5856 6.94581 36.0896 6.7229C35.6101 6.49999 35.081 6.38854 34.5023 6.38854C34.1551 6.38854 33.7913 6.45223 33.411 6.5796C33.0307 6.70698 32.6753 6.88212 32.3446 7.10502C32.0139 7.32793 31.7245 7.59064 31.4765 7.89316C31.2285 8.19567 31.0549 8.51411 30.9557 8.84847V12.1204C31.1872 12.6299 31.4931 13.0917 31.8733 13.5056C32.2536 13.9037 32.6918 14.2301 33.1878 14.4848C33.6838 14.7236 34.1881 14.8431 34.7007 14.8431Z" fill="#FEFDFC"/>
<path d="M13.2274 33.6661H0V35.5768H13.2274V33.6661Z" fill="white"/>
<path d="M41.1962 0H27.9688V1.91063H41.1962V0Z" fill="white"/>
<path d="M6.72118 31.5904C5.71259 31.5904 4.79494 31.4232 3.96822 31.0888C3.15804 30.7385 2.45534 30.2689 1.8601 29.6797C1.26487 29.0747 0.801912 28.3901 0.471226 27.6258C0.157075 26.8456 0 26.0177 0 25.142C0 23.9638 0.281081 22.8891 0.843246 21.9178C1.40541 20.9307 2.19079 20.1425 3.19938 19.5534C4.20797 18.9484 5.39017 18.6459 6.74598 18.6459C8.10179 18.6459 9.26746 18.9484 10.243 19.5534C11.235 20.1425 12.0039 20.9227 12.5495 21.8939C13.0951 22.8652 13.368 23.9081 13.368 25.0226C13.368 25.2137 13.3597 25.3968 13.3432 25.5719C13.3266 25.7311 13.3101 25.8664 13.2935 25.9779H2.90176C2.95137 26.7103 3.15805 27.3551 3.5218 27.9124C3.90209 28.4538 4.38158 28.8836 4.96028 29.2021C5.53898 29.5046 6.15901 29.6559 6.82038 29.6559C7.54789 29.6559 8.23406 29.4807 8.8789 29.1304C9.54027 28.7802 9.9867 28.3184 10.2182 27.7452L12.5495 28.3901C12.2684 28.9951 11.8385 29.5444 11.2598 30.038C10.6977 30.5156 10.028 30.8978 9.25092 31.1844C8.47381 31.455 7.63056 31.5904 6.72118 31.5904ZM2.82736 24.2345H10.6646C10.615 23.518 10.4001 22.8891 10.0198 22.3477C9.65601 21.7904 9.18478 21.3606 8.60609 21.058C8.04392 20.7396 7.41562 20.5804 6.72118 20.5804C6.04327 20.5804 5.41497 20.7396 4.83627 21.058C4.27411 21.3606 3.81115 21.7904 3.44739 22.3477C3.08364 22.8891 2.87696 23.518 2.82736 24.2345Z" fill="#FEFDFC"/>
<path d="M16.9605 19.1638L20.0359 23.4388L20.2591 23.8449L20.4823 23.4388L23.5329 19.1638H26.4843L21.8216 25.4211L26.5339 31.6545H23.5825L20.4823 27.4034L20.2591 27.0213L20.0359 27.4034L16.9357 31.6545H13.9844L18.6966 25.445L14.034 19.1638H16.9605Z" fill="#FEFDFC"/>
</svg>
