<svg width="71" height="61" viewBox="0 0 71 61" fill="none" xmlns="http://www.w3.org/2000/svg">
<path d="M24.3135 22.7354C24.3135 21.3928 24.7054 20.2247 25.4891 19.2312C26.3009 18.2108 27.4066 17.4321 28.8062 16.8951C30.2058 16.3312 31.8293 16.0492 33.6768 16.0492C34.6565 16.0492 35.6502 16.1164 36.6579 16.2506C37.6936 16.3849 38.6033 16.5997 39.3871 16.8951V15.5659C39.3871 14.089 38.9252 12.9344 38.0015 12.102C37.0778 11.2695 35.7482 10.8533 34.0127 10.8533C32.781 10.8533 31.6194 11.0682 30.5277 11.4978C29.436 11.9006 28.2743 12.4779 27.0427 13.2297L25.4891 10.2492C26.9447 9.30934 28.4003 8.61118 29.8559 8.1547C31.3394 7.69821 32.893 7.46997 34.5165 7.46997C37.4557 7.46997 39.765 8.22183 41.4445 9.72555C43.152 11.2024 44.0058 13.3103 44.0058 16.0492V23.9035C44.0058 24.4136 44.0897 24.7762 44.2577 24.991C44.4536 25.2058 44.7755 25.3266 45.2234 25.3535V28.898C44.8035 28.9785 44.4256 29.0322 44.0897 29.0591C43.7538 29.0859 43.4739 29.0993 43.25 29.0993C42.2703 29.0993 41.5285 28.8711 41.0246 28.4146C40.5208 27.9581 40.2269 27.4211 40.1429 26.8035L40.0169 25.5951C39.0652 26.7766 37.8476 27.6896 36.364 28.3341C34.8804 28.9785 33.3828 29.3007 31.8713 29.3007C30.4157 29.3007 29.1141 29.0188 27.9664 28.4549C26.8187 27.8641 25.923 27.072 25.2792 26.0785C24.6354 25.085 24.3135 23.9706 24.3135 22.7354ZM38.2954 24.0243C38.6313 23.6752 38.8972 23.3261 39.0932 22.9771C39.2891 22.628 39.3871 22.3192 39.3871 22.0507V19.634C38.6033 19.3386 37.7776 19.1238 36.9098 18.9895C36.0421 18.8284 35.1883 18.7479 34.3486 18.7479C32.6691 18.7479 31.2974 19.0701 30.2338 19.7145C29.1981 20.359 28.6802 21.2451 28.6802 22.3729C28.6802 22.9905 28.8482 23.5812 29.1841 24.1451C29.548 24.709 30.0518 25.1655 30.6956 25.5146C31.3674 25.8637 32.1932 26.0382 33.1729 26.0382C34.1806 26.0382 35.1463 25.8502 36.0701 25.4743C36.9938 25.0984 37.7356 24.615 38.2954 24.0243Z" fill="white"/>
<path d="M60.8971 29.3007C59.1337 29.3007 57.5801 28.898 56.2365 28.0924C54.8929 27.2868 53.8292 26.2396 53.0454 24.9507V37.4772H48.4268V7.83247H52.4996V11.6186C53.3393 10.3566 54.431 9.34962 55.7746 8.59776C57.1182 7.8459 58.6158 7.46997 60.2673 7.46997C61.7789 7.46997 63.1645 7.76534 64.4241 8.35609C65.6838 8.91998 66.7754 9.71212 67.6992 10.7325C68.6229 11.7529 69.3367 12.9209 69.8406 14.2367C70.3724 15.5256 70.6383 16.8951 70.6383 18.3451C70.6383 20.359 70.2184 22.1984 69.3787 23.8632C68.5669 25.528 67.4193 26.8572 65.9357 27.8507C64.4801 28.8174 62.8006 29.3007 60.8971 29.3007ZM59.3856 25.5146C60.3653 25.5146 61.247 25.3132 62.0308 24.9104C62.8426 24.5076 63.5284 23.9706 64.0882 23.2993C64.6761 22.628 65.1239 21.8627 65.4318 21.0034C65.7397 20.1442 65.8937 19.258 65.8937 18.3451C65.8937 17.3784 65.7258 16.4654 65.3898 15.6062C65.0539 14.7469 64.5641 13.995 63.9203 13.3506C63.3044 12.7061 62.5767 12.1959 61.7369 11.82C60.9251 11.4441 60.0294 11.2561 59.0497 11.2561C58.4619 11.2561 57.846 11.3635 57.2022 11.5783C56.5584 11.7932 55.9566 12.0885 55.3967 12.4645C54.8369 12.8404 54.347 13.2835 53.9272 13.7936C53.5073 14.3038 53.2134 14.8409 53.0454 15.4048V20.9229C53.4373 21.7821 53.9552 22.5609 54.599 23.259C55.2428 23.9303 55.9846 24.4808 56.8243 24.9104C57.6641 25.3132 58.5178 25.5146 59.3856 25.5146Z" fill="white"/>
<path d="M23.0322 57.2598H0.638672V60.482H23.0322V57.2598Z" fill="#FEFDFC"/>
<path d="M70.3828 0.481934H47.9893V3.70419H70.3828V0.481934Z" fill="#FEFDFC"/>
<path d="M12.0174 53.7587C10.3099 53.7587 8.75632 53.4768 7.35673 52.9129C5.98512 52.3222 4.79547 51.53 3.78776 50.5365C2.78005 49.5161 1.99628 48.3615 1.43644 47.0726C0.904594 45.7568 0.638672 44.3605 0.638672 42.8836C0.638672 40.8966 1.11453 39.0841 2.06626 37.4461C3.01798 35.7813 4.3476 34.4521 6.0551 33.4585C7.76261 32.4382 9.76403 31.928 12.0594 31.928C14.3547 31.928 16.3281 32.4382 17.9796 33.4585C19.6592 34.4521 20.9608 35.7678 21.8845 37.4058C22.8083 39.0438 23.2701 40.8026 23.2701 42.6822C23.2701 43.0045 23.2561 43.3133 23.2281 43.6086C23.2001 43.8772 23.1721 44.1054 23.1442 44.2934H5.55125C5.63523 45.5286 5.98512 46.6161 6.60095 47.5559C7.24476 48.4689 8.05652 49.1939 9.03624 49.7309C10.016 50.2411 11.0657 50.4962 12.1853 50.4962C13.417 50.4962 14.5786 50.2008 15.6703 49.6101C16.79 49.0193 17.5458 48.2406 17.9377 47.274L21.8845 48.3615C21.4087 49.3819 20.6809 50.3082 19.7011 51.1407C18.7494 51.9462 17.6158 52.5907 16.3001 53.074C14.9845 53.5305 13.5569 53.7587 12.0174 53.7587ZM5.42529 41.3531H18.6934C18.6095 40.1447 18.2456 39.0841 17.6018 38.1711C16.9859 37.2313 16.1882 36.5063 15.2085 35.9961C14.2567 35.459 13.193 35.1905 12.0174 35.1905C10.8697 35.1905 9.80601 35.459 8.8263 35.9961C7.87457 36.5063 7.0908 37.2313 6.47498 38.1711C5.85916 39.0841 5.50926 40.1447 5.42529 41.3531Z" fill="white"/>
<path d="M29.352 32.8015L34.5585 40.0113L34.9364 40.696L35.3143 40.0113L40.4788 32.8015H45.4754L37.5816 43.3544L45.5593 53.867H40.5628L35.3143 46.6975L34.9364 46.053L34.5585 46.6975L29.31 53.867H24.3135L32.2912 43.3947L24.3975 32.8015H29.352Z" fill="white"/>
</svg>
